<svg xmlns="http://www.w3.org/2000/svg" fill="none" viewBox="0 0 24 24" height="24" width="24"><path stroke="#ededed" stroke-linejoin="round" stroke-miterlimit="10" stroke-width="2" d="M8 0v24"></path><path stroke="#ededed" stroke-linejoin="round" stroke-miterlimit="10" stroke-width="2" d="M16 0v24"></path><path stroke="#ededed" stroke-linejoin="round" stroke-miterlimit="10" stroke-width="2" d="M24 8H0"></path><path stroke="#ededed" stroke-linejoin="round" stroke-miterlimit="10" stroke-width="2" d="M24 16H0"></path><path stroke="#ededed" stroke-linejoin="round" stroke-miterlimit="10" stroke-width="2" d="m18.8 18.8 4 4"></path><path stroke="#ededed" stroke-linejoin="round" stroke-miterlimit="10" stroke-width="2" d="m22.8 18.8 -4 4"></path><path stroke="#ededed" stroke-linejoin="round" stroke-miterlimit="10" stroke-width="2" d="m1.8 10.2 3.4 3.6"></path><path stroke="#ededed" stroke-linejoin="round" stroke-miterlimit="10" stroke-width="2" d="m5.2 10.2 -3.4 3.6"></path><path fill="#ededed" d="M12 14c1.1046 0 2 -0.8954 2 -2s-0.8954 -2 -2 -2 -2 0.8954 -2 2 0.8954 2 2 2Z" stroke-width="2"></path><path fill="#ededed" d="M3.5 22.5c1.10457 0 2 -0.8954 2 -2s-0.89543 -2 -2 -2 -2 0.8954 -2 2 0.89543 2 2 2Z" stroke-width="2"></path><path fill="#ededed" d="M20.5 5.5c1.1046 0 2 -0.89543 2 -2s-0.8954 -2 -2 -2 -2 0.89543 -2 2 0.8954 2 2 2Z" stroke-width="2"></path></svg>