<svg xmlns="http://www.w3.org/2000/svg" fill="none" viewBox="-1.2 -1.2 24 24" height="24" width="24" style="background-color: #000000"><path stroke="#dadada" stroke-linecap="round" stroke-linejoin="round" stroke-miterlimit="10" d="M6.75 0.45v20.7" stroke-width="1"></path><path stroke="#dadada" stroke-linecap="round" stroke-linejoin="round" stroke-miterlimit="10" d="M13.950000000000001 0.45v20.7" stroke-width="1"></path><path stroke="#dadada" stroke-linecap="round" stroke-linejoin="round" stroke-miterlimit="10" d="M0.45 14.85h19.8" stroke-width="1"></path><path stroke="#dadada" stroke-linecap="round" stroke-linejoin="round" stroke-miterlimit="10" d="M0.45 6.75h19.8" stroke-width="1"></path><path stroke="#dadada" stroke-linecap="round" stroke-linejoin="round" stroke-miterlimit="10" d="m0.45 21.150000000000002 19.8 -20.7" stroke-width="1"></path><path stroke="#dadada" stroke-linecap="round" stroke-linejoin="round" stroke-miterlimit="10" d="m9 4.5 2.7 -2.7" stroke-width="1"></path><path stroke="#dadada" stroke-linecap="round" stroke-linejoin="round" stroke-miterlimit="10" d="m9 1.8 2.7 2.7" stroke-width="1"></path><path stroke="#dadada" stroke-linecap="round" stroke-linejoin="round" stroke-miterlimit="10" d="m1.8 12.15 2.7 -2.7" stroke-width="1"></path><path stroke="#dadada" stroke-linecap="round" stroke-linejoin="round" stroke-miterlimit="10" d="m1.8 9.450000000000001 2.7 2.7" stroke-width="1"></path><path stroke="#dadada" stroke-linecap="round" stroke-linejoin="round" stroke-miterlimit="10" d="m16.2 19.8 2.7 -2.7" stroke-width="1"></path><path stroke="#dadada" stroke-linecap="round" stroke-linejoin="round" stroke-miterlimit="10" d="m16.2 17.1 2.7 2.7" stroke-width="1"></path><path stroke="#dadada" stroke-linecap="round" stroke-linejoin="round" stroke-miterlimit="10" d="m4.95 4.05 -1.8 0.9 -1.8 -0.9v-1.8l1.8 -0.9 1.8 0.9v1.8Z" stroke-width="1"></path><path stroke="#dadada" stroke-linecap="round" stroke-linejoin="round" stroke-miterlimit="10" d="m4.95 19.8 -1.8 0.9 -1.8 -0.9v-1.8l1.8 -0.9 1.8 0.9v1.8Z" stroke-width="1"></path><path stroke="#dadada" stroke-linecap="round" stroke-linejoin="round" stroke-miterlimit="10" d="m12.15 11.700000000000001 -1.8 0.9 -1.8 -0.9v-1.8l1.8 -0.9 1.8 0.9v1.8Z" stroke-width="1"></path><path stroke="#dadada" stroke-linecap="round" stroke-linejoin="round" stroke-miterlimit="10" d="m19.35 3.6 -1.8 0.9 -1.8 -0.9V1.8l1.8 -0.9 1.8 0.9v1.8Z" stroke-width="1"></path></svg>